<svg width="156" height="105" viewBox="0 0 156 105" fill="none" xmlns="http://www.w3.org/2000/svg">
<path d="M31.7993 42.624L31.5433 27.52H14.7753C14.6899 33.92 14.6473 38.6987 14.6473 41.856L19.0633 42.432C19.0633 44.1813 18.5726 46.0373 17.5913 48H2.03925L1.46325 44.48C3.85258 43.4987 5.64458 42.88 6.83925 42.624C6.83925 42.496 6.64725 31.2107 6.26325 8.768L0.95125 7.104L1.46325 3.2H18.0393C18.7219 4.352 19.1273 6.03733 19.2553 8.256C17.0793 8.59733 15.6499 8.81067 14.9673 8.896C14.8819 14.4427 14.8393 18.6027 14.8393 21.376H31.4153L31.2233 8.768L25.9113 7.104L26.4233 3.2H42.9993C43.6819 4.352 44.0873 6.03733 44.2153 8.256C42.0393 8.59733 40.6099 8.81067 39.9273 8.896L39.6073 41.856L44.0233 42.432C44.0233 44.1813 43.5326 46.0373 42.5513 48H26.9993L26.4233 44.48C28.8126 43.4987 30.6046 42.88 31.7993 42.624ZM65.5363 19.84C64.0003 19.84 62.2509 20.224 60.2883 20.992C59.7336 21.8453 59.2003 23.36 58.6883 25.536C58.2189 27.6693 57.9843 29.824 57.9843 32C57.9843 36.0107 58.5816 38.8693 59.7763 40.576C60.9709 42.24 62.8909 43.072 65.5363 43.072C68.2243 43.072 70.1656 42.24 71.3603 40.576C72.5549 38.8693 73.1523 35.968 73.1523 31.872C73.1523 27.7333 72.5336 24.704 71.2963 22.784C70.1016 20.8213 68.1816 19.84 65.5363 19.84ZM65.5363 14.72C70.5283 14.72 74.5389 16.256 77.5683 19.328C80.6403 22.3573 82.1763 26.6027 82.1763 32.064C82.1763 37.4827 80.6616 41.6213 77.6323 44.48C74.6029 47.3387 70.5709 48.768 65.5363 48.768C60.5016 48.768 56.4696 47.3387 53.4403 44.48C50.4536 41.6213 48.9603 37.4827 48.9603 32.064C48.9603 26.6027 50.4749 22.3573 53.5043 19.328C56.5336 16.256 60.5443 14.72 65.5363 14.72ZM90.8218 48.768L89.4138 48.704C89.1578 48.2347 88.8164 47.36 88.3898 46.08C87.9631 44.8 87.7284 43.84 87.6858 43.2C87.4724 38.976 87.2378 31.6587 86.9818 21.248H82.5018L82.6938 17.6C83.6751 16.9173 84.8484 16.2987 86.2138 15.744L91.3978 7.552C93.0618 7.72267 94.3631 8.17067 95.3018 8.896L95.2378 14.976C97.9258 15.0613 100.422 15.3173 102.726 15.744C102.726 17.4507 102.192 19.2853 101.126 21.248H95.1738C95.0031 30.208 94.8964 36.928 94.8538 41.408C96.5604 41.5787 98.8858 42.0693 101.83 42.88L101.766 46.208C101.04 46.6773 99.4191 47.232 96.9018 47.872C94.4271 48.4693 92.4004 48.768 90.8218 48.768ZM122.352 42.496C123.802 42.496 126.746 41.4933 131.184 39.488C132.122 40.8533 132.826 42.432 133.296 44.224C130.949 45.6747 128.645 46.8053 126.384 47.616C124.165 48.384 122.586 48.768 121.648 48.768C116.485 48.768 112.56 47.3387 109.872 44.48C107.226 41.6213 105.904 37.568 105.904 32.32C105.904 27.0293 107.226 22.784 109.872 19.584C112.517 16.3413 116.442 14.72 121.648 14.72C125.786 14.72 128.944 16.064 131.12 18.752C133.296 21.44 134.384 24.9387 134.384 29.248C134.384 30.144 133.872 31.168 132.848 32.32L114.416 32C114.501 35.4133 115.141 38.016 116.336 39.808C117.53 41.6 119.536 42.496 122.352 42.496ZM121.072 20.032C119.45 20.032 117.936 20.352 116.528 20.992C115.546 23.04 114.928 24.9387 114.672 26.688C118 26.56 121.776 26.4747 126 26.432C125.786 22.1653 124.144 20.032 121.072 20.032ZM150.686 0.447998C151.496 0.447998 152.008 0.469331 152.222 0.511997C152.222 2.73066 151.944 4.672 151.39 6.336C151.347 8.98133 151.283 12.7147 151.198 17.536C151.027 28.1173 150.899 36.224 150.814 41.856L155.806 42.432C155.806 44.1813 155.315 46.0373 154.334 48H138.398L137.822 44.48C140.467 43.4987 142.387 42.8587 143.582 42.56L142.366 7.04C140.36 6.82666 138.675 6.50666 137.31 6.08C137.31 4.50133 137.459 2.96533 137.758 1.472C140.275 0.789331 144.584 0.447998 150.686 0.447998ZM35.013 77.352C36.037 77.1813 36.805 77.096 37.317 77.096C37.8717 77.096 39.045 77.2453 40.837 77.544C41.0077 77.8853 41.2423 78.9733 41.541 80.808C41.8823 82.6427 42.053 84.136 42.053 85.288C42.053 86.3973 41.925 87.6347 41.669 89H10.629L10.053 85.48C12.1437 84.6267 13.9357 84.008 15.429 83.624C15.429 83.496 15.237 72.2107 14.853 49.768L9.541 48.104L10.053 44.2H26.693C26.6503 44.2 26.6503 44.2427 26.693 44.328C26.7783 44.4133 26.8637 44.6053 26.949 44.904C27.077 45.16 27.205 45.48 27.333 45.864C27.589 46.5467 27.7597 47.6773 27.845 49.256C25.669 49.5973 24.2397 49.8107 23.557 49.896C23.3863 64.616 23.2797 75.6027 23.237 82.856H33.605L35.013 77.352ZM61.88 60.84C60.344 60.84 58.5947 61.224 56.632 61.992C56.0773 62.8453 55.544 64.36 55.032 66.536C54.5627 68.6693 54.328 70.824 54.328 73C54.328 77.0107 54.9253 79.8693 56.12 81.576C57.3147 83.24 59.2347 84.072 61.88 84.072C64.568 84.072 66.5093 83.24 67.704 81.576C68.8987 79.8693 69.496 76.968 69.496 72.872C69.496 68.7333 68.8773 65.704 67.64 63.784C66.4453 61.8213 64.5253 60.84 61.88 60.84ZM61.88 55.72C66.872 55.72 70.8827 57.256 73.912 60.328C76.984 63.3573 78.52 67.6027 78.52 73.064C78.52 78.4827 77.0053 82.6213 73.976 85.48C70.9467 88.3387 66.9147 89.768 61.88 89.768C56.8453 89.768 52.8133 88.3387 49.784 85.48C46.7973 82.6213 45.304 78.4827 45.304 73.064C45.304 67.6027 46.8187 63.3573 49.848 60.328C52.8773 57.256 56.888 55.72 61.88 55.72ZM105.214 77.928C103.806 78.824 102.312 79.4853 100.734 79.912C99.1548 80.296 97.6188 80.488 96.1255 80.488C94.6748 80.488 93.3948 80.3387 92.2855 80.04C91.8162 81.1493 91.3682 81.9813 90.9415 82.536C91.2828 83.048 94.8668 83.304 101.694 83.304C105.96 83.304 108.968 83.9653 110.718 85.288C111.528 85.8427 112.232 86.7173 112.83 87.912C113.47 89.1067 113.79 90.6427 113.79 92.52C113.79 94.44 112.851 96.36 110.974 98.28C109.096 100.2 106.75 101.715 103.934 102.824C101.118 103.933 98.3228 104.488 95.5495 104.488C90.9415 104.488 87.2082 103.571 84.3495 101.736C81.4908 99.944 80.0615 97.704 80.0615 95.016C80.0615 94.504 80.8082 93.2453 82.3015 91.24C83.7948 89.2773 84.7762 88.1467 85.2455 87.848C84.8188 87.6347 84.0722 86.9307 83.0055 85.736C81.9388 84.4987 81.3415 83.624 81.2135 83.112C81.7682 81.576 83.4748 79.656 86.3335 77.352C83.0055 75.3467 81.3415 71.976 81.3415 67.24C81.3415 63.4853 82.6215 60.6267 85.1815 58.664C87.7842 56.7013 91.1975 55.72 95.4215 55.72C99.6882 55.72 102.91 56.296 105.086 57.448C108.712 56.808 111.272 56.488 112.766 56.488C114.302 56.488 115.304 56.5093 115.774 56.552C115.774 57.576 115.518 58.7493 115.006 60.072C114.536 61.352 114.088 62.248 113.662 62.76L108.158 61.48C109.224 63.016 109.757 65 109.757 67.432C109.757 69.864 109.352 71.9973 108.542 73.832C107.731 75.624 106.622 76.9893 105.214 77.928ZM104.894 96.232C105.192 95.4213 105.342 94.4827 105.342 93.416C105.342 92.3493 104.872 91.56 103.934 91.048C102.995 90.5787 101.886 90.344 100.606 90.344C95.6135 90.344 92.3068 90.3013 90.6855 90.216C90.3442 90.9413 89.9175 91.9653 89.4055 93.288C88.8935 94.6533 88.6375 95.464 88.6375 95.72C88.6375 95.976 88.8082 96.3387 89.1495 96.808C89.4908 97.32 90.2162 97.8533 91.3255 98.408C92.4775 98.9627 93.8642 99.24 95.4855 99.24C97.1495 99.24 99.0908 98.856 101.31 98.088C103.528 97.32 104.723 96.7013 104.894 96.232ZM99.7095 62.248C98.7282 61.096 97.3415 60.52 95.5495 60.52C93.7575 60.52 92.3495 61.096 91.3255 62.248C90.3442 63.4 89.8535 65.0853 89.8535 67.304C89.8535 69.48 90.3655 71.1867 91.3895 72.424C92.4135 73.6613 93.8002 74.28 95.5495 74.28C99.3468 74.28 101.246 71.9333 101.246 67.24C101.246 65.064 100.734 63.4 99.7095 62.248ZM133.318 60.84C131.782 60.84 130.032 61.224 128.07 61.992C127.515 62.8453 126.982 64.36 126.47 66.536C126 68.6693 125.766 70.824 125.766 73C125.766 77.0107 126.363 79.8693 127.558 81.576C128.752 83.24 130.672 84.072 133.318 84.072C136.006 84.072 137.947 83.24 139.142 81.576C140.336 79.8693 140.934 76.968 140.934 72.872C140.934 68.7333 140.315 65.704 139.078 63.784C137.883 61.8213 135.963 60.84 133.318 60.84ZM133.318 55.72C138.31 55.72 142.32 57.256 145.35 60.328C148.422 63.3573 149.958 67.6027 149.958 73.064C149.958 78.4827 148.443 82.6213 145.414 85.48C142.384 88.3387 138.352 89.768 133.318 89.768C128.283 89.768 124.251 88.3387 121.222 85.48C118.235 82.6213 116.742 78.4827 116.742 73.064C116.742 67.6027 118.256 63.3573 121.286 60.328C124.315 57.256 128.326 55.72 133.318 55.72Z" fill="white"/>
</svg>
